name C:\Users\antoi\Documents\MyRepositories\upper-imu-dc\Results\main_tracking\Case_71\SHRUG01_linearAccelerations_groundFrame.mot
datacolumns 4
datarows 94
range 0.71000000 1.64000000
endheader 
time	radius_imu_x	radius_imu_y	radius_imu_z	
          0.71000000	         -0.01438342	          9.86740302	          0.17827546	
          0.72000000	          0.00330609	          9.76505847	         -0.10936899	
          0.73000000	         -0.00877443	          9.73624530	         -0.17756401	
          0.74000000	         -0.03297058	          9.74128801	         -0.16609148	
          0.75000000	         -0.06334011	          9.75900826	         -0.12240163	
          0.76000000	         -0.09613169	          9.78339974	         -0.06612367	
          0.77000000	         -0.12891626	          9.81207101	         -0.00475555	
          0.78000000	         -0.15863056	          9.84487666	          0.05893166	
          0.79000000	         -0.18560813	          9.88158667	          0.12344051	
          0.80000000	         -0.20814212	          9.92268464	          0.18858867	
          0.81000000	         -0.22584087	          9.96865580	          0.25400640	
          0.82000000	         -0.23844233	         10.01941643	          0.31965994	
          0.83000000	         -0.24539767	         10.07488622	          0.38515542	
          0.84000000	         -0.24602229	         10.13469707	          0.44998540	
          0.85000000	         -0.23961008	         10.19818051	          0.51334625	
          0.86000000	         -0.22523625	         10.26441431	          0.57411725	
          0.87000000	         -0.20168666	         10.33224898	          0.63084604	
          0.88000000	         -0.16752508	         10.40042244	          0.68177859	
          0.89000000	         -0.12139079	         10.46744859	          0.72496272	
          0.90000000	         -0.06190081	         10.53184991	          0.75854804	
          0.91000000	          0.01164685	         10.59196900	          0.78084171	
          0.92000000	          0.09921470	         10.64615230	          0.79054708	
          0.93000000	          0.19970298	         10.69274586	          0.78701154	
          0.94000000	          0.31084623	         10.73025503	          0.77030076	
          0.95000000	          0.42927375	         10.75734715	          0.74123068	
          0.96000000	          0.55074102	         10.77305569	          0.70130564	
          0.97000000	          0.67048365	         10.77696070	          0.65257253	
          0.98000000	          0.78368862	         10.76924734	          0.59738974	
          0.99000000	          0.88597047	         10.75073628	          0.53813150	
          1.00000000	          0.97373346	         10.72280835	          0.47691140	
          1.01000000	          1.04437554	         10.68722677	          0.41539464	
          1.02000000	          1.09630766	         10.64589176	          0.35470827	
          1.03000000	          1.12883941	         10.60060206	          0.29546450	
          1.04000000	          1.14199186	         10.55289476	          0.23789870	
          1.05000000	          1.13635039	         10.50398848	          0.18206361	
          1.06000000	          1.11304071	         10.45480978	          0.12797637	
          1.07000000	          1.07378537	         10.40604012	          0.07567409	
          1.08000000	          1.02092253	         10.35813376	          0.02519830	
          1.09000000	          0.95730789	         10.31130530	         -0.02344995	
          1.10000000	          0.88607212	         10.26552438	         -0.07033996	
          1.11000000	          0.81030306	         10.22055847	         -0.11559612	
          1.12000000	          0.73277040	         10.17606667	         -0.15936915	
          1.13000000	          0.65575870	         10.13170869	         -0.20185235	
          1.14000000	          0.58097484	         10.08722566	         -0.24335762	
          1.15000000	          0.50946701	         10.04245783	         -0.28440300	
          1.16000000	          0.44154080	          9.99730632	         -0.32571939	
          1.17000000	          0.37670852	          9.95160376	         -0.36811145	
          1.18000000	          0.31365259	          9.90502624	         -0.41229485	
          1.19000000	          0.25014744	          9.85691639	         -0.45857309	
          1.20000000	          0.18364034	          9.80640207	         -0.50676335	
          1.21000000	          0.11132343	          9.75242305	         -0.55605720	
          1.22000000	          0.03102474	          9.69395817	         -0.60514218	
          1.23000000	         -0.05803888	          9.63026690	         -0.65236389	
          1.24000000	         -0.15526111	          9.56141156	         -0.69555573	
          1.25000000	         -0.25924075	          9.48745700	         -0.73251305	
          1.26000000	         -0.36859165	          9.40931578	         -0.76179749	
          1.27000000	         -0.48108379	          9.32811165	         -0.78120983	
          1.28000000	         -0.59073443	          9.24687575	         -0.78870647	
          1.29000000	         -0.69062041	          9.17088306	         -0.77982374	
          1.30000000	         -0.77823602	          9.10321182	         -0.75190378	
          1.31000000	         -0.84916312	          9.04208286	         -0.71497438	
          1.32000000	         -0.90332382	          8.98785101	         -0.67161939	
          1.33000000	         -0.93800760	          8.94082961	         -0.62478422	
          1.34000000	         -0.95457164	          8.90377438	         -0.57306599	
          1.35000000	         -0.95487934	          8.87691113	         -0.51790902	
          1.36000000	         -0.93858809	          8.86017021	         -0.46022831	
          1.37000000	         -0.91231690	          8.85375804	         -0.39958236	
          1.38000000	         -0.87628377	          8.85482115	         -0.33747878	
          1.39000000	         -0.83831537	          8.86596202	         -0.27709465	
          1.40000000	         -0.78520929	          8.88204047	         -0.21365225	
          1.41000000	         -0.73705811	          8.90777167	         -0.15397314	
          1.42000000	         -0.68080272	          8.93846405	         -0.09476521	
          1.43000000	         -0.62219305	          8.97656341	         -0.03811658	
          1.44000000	         -0.56079088	          9.02143344	          0.01636935	
          1.45000000	         -0.49632748	          9.07205825	          0.06816545	
          1.46000000	         -0.43041098	          9.12820024	          0.11563561	
          1.47000000	         -0.36406163	          9.18791695	          0.15825540	
          1.48000000	         -0.29772416	          9.24983018	          0.19456291	
          1.49000000	         -0.23225858	          9.31241114	          0.22378339	
          1.50000000	         -0.16900013	          9.37422480	          0.24566482	
          1.51000000	         -0.10937573	          9.43395220	          0.25997670	
          1.52000000	         -0.05483472	          9.49025596	          0.26653751	
          1.53000000	         -0.00675548	          9.54183437	          0.26504431	
          1.54000000	          0.03359398	          9.58744373	          0.25510255	
          1.55000000	          0.06515164	          9.62596489	          0.23633705	
          1.56000000	          0.08726504	          9.65648460	          0.20849511	
          1.57000000	          0.09974566	          9.67844026	          0.17164063	
          1.58000000	          0.10303198	          9.69169828	          0.12628752	
          1.59000000	          0.09806951	          9.69658147	          0.07357333	
          1.60000000	          0.08623996	          9.69382631	          0.01523558	
          1.61000000	          0.06902939	          9.68444574	         -0.04643687	
          1.62000000	          0.04778357	          9.66958557	         -0.10885037	
          1.63000000	          0.02348061	          9.65037903	         -0.16937663	
          1.64000000	         -0.00336298	          9.62784486	         -0.22562101	
